Bob The Builder: Legend Of The Golden Hammer 2010 DvDrip_minstrel

      Complete name: Bob The Builder Legend of the Golden Hammer 2010 DvDip_minstrel.avi
      Format : AVI
      Format/Info : Audio Video Interleave
      File size : 450 MiB
      Duration : 59mn 46s
      Overall bit rate : 1 052 Kbps
      Writing application : MEncoder SVN-r29352(20090610-gcc4.3.3)
      Writing library : MPlayer
   Video #0
      ID : 0
      Format : MPEG-4 Visual
      Format profile : AdvancedSimple@L5
      Format settings, BVOP : Yes
      Format settings, QPel : No
      Format settings, GMC : No warppoints
      Format settings, Matrix : Default (H.263)
      Codec ID : XVID
      Codec ID/Hint : XviD
      Duration : 59mn 46s
      Bit rate : 911 Kbps
      Width : 640 pixels
      Height : 480 pixels
      Display aspect ratio : 4:3
      Frame rate : 25.000 fps
      Resolution : 24 bits
      Colorimetry : 4:2:0
      Scan type : Progressive
      Bits/(Pixel*Frame) : 0.119
      Stream size : 390 MiB (87%)
      Writing library : XviD 1.2.1 (UTC 2008-12-04)
   Audio #1
      ID : 1
      Format : MPEG Audio
      Format version : Version 1
      Format profile : Layer 3
      Codec ID : 55
      Codec ID/Hint : MP3
      Duration : 59mn 46s
      Bit rate mode : Constant
      Bit rate : 128 Kbps
      Channel(s) : 2 channels
      Sampling rate : 44.1 KHz
      Resolution : 16 bits
      Video delay : 40ms
      Stream size : 54.7 MiB (12%)
      Alignment : Aligned on interleaves
      Interleave, duration : 26 ms (0.65 video frame)
      Interleave, preload duration : 522 ms
      Writing library : LAME3.98


In their new home of Fixham Harbour, Bob and the team set to work tackling exciting new building jobs, and making new friends. But when Spud and Scrambler learn of an amazing treasure, the pirate Brickbeard's Golden Hammer, hidden somewhere in Fixham they decide that building can wait, and they must find the hammer to give to Bob. Help them follow the clues and find the Golden Hammer in this all-new special !


Synopsis
Everyone's favourite fix-it man Bob the Builder sets to work on some exciting building projects in his new home of Fixham Harbour. Spud and Scrambler, however, are more interested in hunting for treasure after they learn of the pirate Blackbeard's Golden Hammer. Will the pair put all the clues together and track down the hidden bounty? Find out in this great new adventure.

